<svg xmlns="http://www.w3.org/2000/svg" viewBox="0 0 50 100">
  <!-- Globo atado a su lado izquierdo: el hilo acaba en (46, 96), pegado al
       costado, y el globo flota arriba. -->
  <defs>
    <radialGradient id="rubber" cx=".36" cy=".3" r=".8">
      <stop offset="0" stop-color="#F8BDDB"/>
      <stop offset=".55" stop-color="#F59AC8"/>
      <stop offset="1" stop-color="#CB84AD"/>
    </radialGradient>
  </defs>
  <path d="M22 45 C24 58 34 62 32 74 C30 86 40 90 46 96" fill="none" stroke="#8FA3B5" stroke-width="1.3" stroke-linecap="round"/>
  <path d="M22 4 C35 4 42 14 42 24 C42 36 32 44 22 44 C12 44 3 36 3 24 C3 14 10 4 22 4 Z"
        fill="url(#rubber)" stroke="#8C6484" stroke-width="1.8"/>
  <path d="M19 44 L25 44 L26.5 48 L17.5 48 Z" fill="#F59AC8" stroke="#8C6484" stroke-width="1.3" stroke-linejoin="round"/>
  <ellipse cx="13.5" cy="15" rx="4.5" ry="7" fill="#FFFFFF" fill-opacity=".8" transform="rotate(25 13.5 15)"/>
  <circle cx="16" cy="26" r="1.6" fill="#FFFFFF" fill-opacity=".6"/>
</svg>
