<svg xmlns="http://www.w3.org/2000/svg" viewBox="0 0 72 72">
  <!-- Pico de pixeles, en la mano derecha: el mango (abajo a la izquierda, en (12, 60)) queda pegado al costado. -->
  <g>
    <rect x="8" y="52" width="4.3" height="4.3" fill="#4A2E17"/>
    <rect x="8" y="56" width="4.3" height="4.3" fill="#4A2E17"/>
    <rect x="8" y="60" width="4.3" height="4.3" fill="#4A2E17"/>
    <rect x="12" y="48" width="4.3" height="4.3" fill="#4A2E17"/>
    <rect x="12" y="52" width="4.3" height="4.3" fill="#4A2E17"/>
    <rect x="12" y="60" width="4.3" height="4.3" fill="#4A2E17"/>
    <rect x="16" y="12" width="4.3" height="4.3" fill="{main.edge}"/>
    <rect x="16" y="16" width="4.3" height="4.3" fill="{main.edge}"/>
    <rect x="16" y="20" width="4.3" height="4.3" fill="{main.edge}"/>
    <rect x="16" y="44" width="4.3" height="4.3" fill="#4A2E17"/>
    <rect x="16" y="48" width="4.3" height="4.3" fill="#4A2E17"/>
    <rect x="16" y="60" width="4.3" height="4.3" fill="#4A2E17"/>
    <rect x="20" y="8" width="4.3" height="4.3" fill="{main.edge}"/>
    <rect x="20" y="12" width="4.3" height="4.3" fill="{main.edge}"/>
    <rect x="20" y="20" width="4.3" height="4.3" fill="{main.edge}"/>
    <rect x="20" y="24" width="4.3" height="4.3" fill="{main.edge}"/>
    <rect x="20" y="40" width="4.3" height="4.3" fill="#4A2E17"/>
    <rect x="20" y="44" width="4.3" height="4.3" fill="#4A2E17"/>
    <rect x="20" y="56" width="4.3" height="4.3" fill="#4A2E17"/>
    <rect x="20" y="60" width="4.3" height="4.3" fill="#4A2E17"/>
    <rect x="24" y="8" width="4.3" height="4.3" fill="{main.edge}"/>
    <rect x="24" y="24" width="4.3" height="4.3" fill="{main.edge}"/>
    <rect x="24" y="36" width="4.3" height="4.3" fill="#4A2E17"/>
    <rect x="24" y="40" width="4.3" height="4.3" fill="#4A2E17"/>
    <rect x="24" y="52" width="4.3" height="4.3" fill="#4A2E17"/>
    <rect x="24" y="56" width="4.3" height="4.3" fill="#4A2E17"/>
    <rect x="28" y="8" width="4.3" height="4.3" fill="{main.edge}"/>
    <rect x="28" y="24" width="4.3" height="4.3" fill="{main.edge}"/>
    <rect x="28" y="32" width="4.3" height="4.3" fill="#4A2E17"/>
    <rect x="28" y="36" width="4.3" height="4.3" fill="#4A2E17"/>
    <rect x="28" y="48" width="4.3" height="4.3" fill="#4A2E17"/>
    <rect x="28" y="52" width="4.3" height="4.3" fill="#4A2E17"/>
    <rect x="32" y="8" width="4.3" height="4.3" fill="{main.edge}"/>
    <rect x="32" y="24" width="4.3" height="4.3" fill="{main.edge}"/>
    <rect x="32" y="28" width="4.3" height="4.3" fill="#4A2E17"/>
    <rect x="32" y="32" width="4.3" height="4.3" fill="#4A2E17"/>
    <rect x="32" y="44" width="4.3" height="4.3" fill="#4A2E17"/>
    <rect x="32" y="48" width="4.3" height="4.3" fill="#4A2E17"/>
    <rect x="36" y="8" width="4.3" height="4.3" fill="{main.edge}"/>
    <rect x="36" y="12" width="4.3" height="4.3" fill="{main.edge}"/>
    <rect x="36" y="28" width="4.3" height="4.3" fill="#4A2E17"/>
    <rect x="36" y="40" width="4.3" height="4.3" fill="#4A2E17"/>
    <rect x="36" y="44" width="4.3" height="4.3" fill="#4A2E17"/>
    <rect x="40" y="12" width="4.3" height="4.3" fill="{main.edge}"/>
    <rect x="40" y="36" width="4.3" height="4.3" fill="#4A2E17"/>
    <rect x="40" y="40" width="4.3" height="4.3" fill="#4A2E17"/>
    <rect x="44" y="12" width="4.3" height="4.3" fill="{main.edge}"/>
    <rect x="44" y="16" width="4.3" height="4.3" fill="{main.edge}"/>
    <rect x="44" y="36" width="4.3" height="4.3" fill="#4A2E17"/>
    <rect x="44" y="40" width="4.3" height="4.3" fill="{main.edge}"/>
    <rect x="44" y="44" width="4.3" height="4.3" fill="{main.edge}"/>
    <rect x="44" y="48" width="4.3" height="4.3" fill="{main.edge}"/>
    <rect x="48" y="16" width="4.3" height="4.3" fill="{main.edge}"/>
    <rect x="48" y="20" width="4.3" height="4.3" fill="{main.edge}"/>
    <rect x="48" y="48" width="4.3" height="4.3" fill="{main.edge}"/>
    <rect x="48" y="52" width="4.3" height="4.3" fill="{main.edge}"/>
    <rect x="52" y="20" width="4.3" height="4.3" fill="{main.edge}"/>
    <rect x="52" y="24" width="4.3" height="4.3" fill="{main.edge}"/>
    <rect x="52" y="52" width="4.3" height="4.3" fill="{main.edge}"/>
    <rect x="56" y="24" width="4.3" height="4.3" fill="{main.edge}"/>
    <rect x="56" y="28" width="4.3" height="4.3" fill="{main.edge}"/>
    <rect x="56" y="32" width="4.3" height="4.3" fill="{main.edge}"/>
    <rect x="56" y="48" width="4.3" height="4.3" fill="{main.edge}"/>
    <rect x="56" y="52" width="4.3" height="4.3" fill="{main.edge}"/>
    <rect x="60" y="32" width="4.3" height="4.3" fill="{main.edge}"/>
    <rect x="60" y="36" width="4.3" height="4.3" fill="{main.edge}"/>
    <rect x="60" y="40" width="4.3" height="4.3" fill="{main.edge}"/>
    <rect x="60" y="44" width="4.3" height="4.3" fill="{main.edge}"/>
    <rect x="60" y="48" width="4.3" height="4.3" fill="{main.edge}"/>
    <rect x="12" y="56" width="4.3" height="4.3" fill="#A8743F"/>
    <rect x="16" y="52" width="4.3" height="4.3" fill="#A8743F"/>
    <rect x="16" y="56" width="4.3" height="4.3" fill="#7A4E26"/>
    <rect x="20" y="16" width="4.3" height="4.3" fill="{main.deep}"/>
    <rect x="20" y="48" width="4.3" height="4.3" fill="#A8743F"/>
    <rect x="20" y="52" width="4.3" height="4.3" fill="#7A4E26"/>
    <rect x="24" y="12" width="4.3" height="4.3" fill="{main.light}"/>
    <rect x="24" y="16" width="4.3" height="4.3" fill="{main}"/>
    <rect x="24" y="20" width="4.3" height="4.3" fill="{main.deep}"/>
    <rect x="24" y="44" width="4.3" height="4.3" fill="#A8743F"/>
    <rect x="24" y="48" width="4.3" height="4.3" fill="#7A4E26"/>
    <rect x="28" y="12" width="4.3" height="4.3" fill="{main.light}"/>
    <rect x="28" y="16" width="4.3" height="4.3" fill="{main}"/>
    <rect x="28" y="20" width="4.3" height="4.3" fill="{main.deep}"/>
    <rect x="28" y="40" width="4.3" height="4.3" fill="#A8743F"/>
    <rect x="28" y="44" width="4.3" height="4.3" fill="#7A4E26"/>
    <rect x="32" y="12" width="4.3" height="4.3" fill="{main.light}"/>
    <rect x="32" y="16" width="4.3" height="4.3" fill="{main}"/>
    <rect x="32" y="20" width="4.3" height="4.3" fill="{main.deep}"/>
    <rect x="32" y="36" width="4.3" height="4.3" fill="#A8743F"/>
    <rect x="32" y="40" width="4.3" height="4.3" fill="#7A4E26"/>
    <rect x="36" y="16" width="4.3" height="4.3" fill="{main.light}"/>
    <rect x="36" y="20" width="4.3" height="4.3" fill="{main}"/>
    <rect x="36" y="24" width="4.3" height="4.3" fill="{main.deep}"/>
    <rect x="36" y="32" width="4.3" height="4.3" fill="#A8743F"/>
    <rect x="36" y="36" width="4.3" height="4.3" fill="#7A4E26"/>
    <rect x="40" y="16" width="4.3" height="4.3" fill="{main.light}"/>
    <rect x="40" y="20" width="4.3" height="4.3" fill="{main}"/>
    <rect x="40" y="24" width="4.3" height="4.3" fill="{main}"/>
    <rect x="40" y="28" width="4.3" height="4.3" fill="{main.deep}"/>
    <rect x="40" y="32" width="4.3" height="4.3" fill="#7A4E26"/>
    <rect x="44" y="20" width="4.3" height="4.3" fill="{main.light}"/>
    <rect x="44" y="24" width="4.3" height="4.3" fill="{main}"/>
    <rect x="44" y="28" width="4.3" height="4.3" fill="{main}"/>
    <rect x="44" y="32" width="4.3" height="4.3" fill="{main.deep}"/>
    <rect x="48" y="24" width="4.3" height="4.3" fill="{main.light}"/>
    <rect x="48" y="28" width="4.3" height="4.3" fill="{main}"/>
    <rect x="48" y="32" width="4.3" height="4.3" fill="{main}"/>
    <rect x="48" y="36" width="4.3" height="4.3" fill="{main.deep}"/>
    <rect x="48" y="40" width="4.3" height="4.3" fill="{main.deep}"/>
    <rect x="48" y="44" width="4.3" height="4.3" fill="{main.deep}"/>
    <rect x="52" y="28" width="4.3" height="4.3" fill="{main.light}"/>
    <rect x="52" y="32" width="4.3" height="4.3" fill="{main.light}"/>
    <rect x="52" y="36" width="4.3" height="4.3" fill="{main}"/>
    <rect x="52" y="40" width="4.3" height="4.3" fill="{main}"/>
    <rect x="52" y="44" width="4.3" height="4.3" fill="{main}"/>
    <rect x="52" y="48" width="4.3" height="4.3" fill="{main.deep}"/>
    <rect x="56" y="36" width="4.3" height="4.3" fill="{main.light}"/>
    <rect x="56" y="40" width="4.3" height="4.3" fill="{main.light}"/>
    <rect x="56" y="44" width="4.3" height="4.3" fill="{main.light}"/>
  </g>
</svg>
